Coordinates
version=1
nRows=29
nColumns=24
inDegrees=yes

Units are S.I. units (second, meters, Newtons, ...)
Angles are in degrees.

endheader
time	pelvis_tilt	pelvis_list	pelvis_rotation	pelvis_tx	pelvis_ty	pelvis_tz	hip_flexion_r	hip_adduction_r	hip_rotation_r	knee_angle_r	ankle_angle_r	subtalar_angle_r	mtp_angle_r	hip_flexion_l	hip_adduction_l	hip_rotation_l	knee_angle_l	ankle_angle_l	subtalar_angle_l	mtp_angle_l	lumbar_extension	lumbar_bending	lumbar_rotation
      1.33733333	      1.30764934	      5.28935163	     -3.31094870	      0.23988085	      1.01245054	      0.31461546	     13.89472012	     -8.28035631	     -4.45349065	    -70.78063872	    -12.54224575	    -19.06460200	      2.89590734	      6.35330466	     10.34264236	      5.62500546	    -12.49718624	      3.40168544	    -18.10521522	     -0.51002779	    -12.88721726	     -0.07105457	     -1.51421020
      1.34150000	      1.30899463	      5.10688142	     -3.30324998	      0.24481907	      1.01339754	      0.31445158	     14.48469690	     -8.05113820	     -4.48417773	    -70.59685973	    -11.85871919	    -19.13976893	      2.40995581	      5.77741150	     10.15984623	      5.74321200	    -11.99125208	      3.38172525	    -18.14214978	     -0.55397830	    -12.89367403	      0.22084592	     -1.81246579
      1.34566667	      1.26927040	      4.87577930	     -3.30985367	      0.24976616	      1.01429951	      0.31436521	     15.09560268	     -7.73795169	     -4.48852447	    -70.32572259	    -11.27561420	    -19.26895280	      2.36499633	      5.25926937	      9.90990911	      5.77724507	    -11.52018241	      3.42883971	    -18.06454087	     -0.55808555	    -12.85163549	      0.50534131	     -1.84391939
      1.34983333	      1.27485044	      4.65384456	     -3.29420960	      0.25469094	      1.01519656	      0.31419212	     15.64176316	     -7.45805345	     -4.52303752	    -70.01088761	    -10.65415122	    -19.21437157	      2.21282775	      4.68428364	      9.68128553	      5.88096720	    -11.03245472	      3.47297178	    -18.02271467	     -0.57143804	    -12.88637244	      0.85758371	     -2.11461470
      1.35400000	      1.27784041	      4.45691696	     -3.26072694	      0.25962817	      1.01604669	      0.31400937	     16.17434362	     -7.21274192	     -4.58618358	    -69.64755425	    -10.02848892	    -19.26870832	      1.94038295	      4.11086882	      9.47720647	      5.98169491	    -10.53564902	      3.46700854	    -18.00112307	     -0.59597258	    -12.89695509	      1.17166659	     -2.40915527
      1.35816667	      1.28291394	      4.23402943	     -3.23069287	      0.26455307	      1.01687741	      0.31385274	     16.68402843	     -6.92691558	     -4.63760976	    -69.21438040	     -9.43365988	    -19.29426161	      1.64828176	      3.53925902	      9.24066147	      6.06583126	    -10.04854651	      3.48728666	    -17.94596808	     -0.62097483	    -12.91834407	      1.49381439	     -2.62462941
      1.36233333	      1.21847671	      4.00936142	     -3.20366084	      0.26949196	      1.01756519	      0.31371972	     17.25722373	     -6.62638325	     -4.68006337	    -68.72957510	     -8.88835046	    -19.36477548	      1.59538903	      3.05928423	      8.99407954	      6.09530281	     -9.59601400	      3.52273598	    -17.86412404	     -0.62558266	    -12.85318195	      1.79324713	     -2.68231372
      1.36650000	      1.22447906	      3.79826792	     -3.16684321	      0.27441701	      1.01828981	      0.31355272	     17.73807436	     -6.35828779	     -4.73632981	    -68.19562156	     -8.32835310	    -19.29939582	      1.46288756	      2.48797249	      8.76816924	      6.18460721	     -9.10920798	      3.58116862	    -17.78105993	     -0.63481788	    -12.87596970	      2.12339678	     -2.95756467
      1.37066667	      1.22793464	      3.58744821	     -3.12154699	      0.27934253	      1.01897511	      0.31339840	     18.20118615	     -6.08721088	     -4.79883017	    -67.60404034	     -7.76692404	    -19.29098646	      1.34076582	      1.92862722	      8.53862201	      6.24780028	     -8.63840879	      3.61339293	    -17.69671417	     -0.64380841	    -12.88730311	      2.42698752	     -3.16700449
      1.37483333	      1.23784683	      3.40581622	     -3.06695156	      0.28427794	      1.01959018	      0.31322138	     18.64822588	     -5.86098834	     -4.87787666	    -66.98126201	     -7.17705368	    -19.28064745	      1.12371793	      1.36255186	      8.34105494	      6.31917493	     -8.16320632	      3.62982582	    -17.60660050	     -0.65852346	    -12.90843957	      2.70925406	     -3.44937013
      1.37900000	      1.18003517	      3.19322545	     -2.98436271	      0.28919904	      1.02010211	      0.31302758	     19.14089756	     -5.59327461	     -4.97027028	    -66.28527001	     -6.64016144	    -19.24375649	     -0.71012901	      0.87734911	      8.10672550	      6.44863708	     -7.70853376	      3.62847319	    -17.59486564	     -0.76586384	    -12.83204839	      3.04568904	     -3.75442214
      1.38316667	      1.20325159	      2.99717304	     -2.96204104	      0.29412653	      1.02065783	      0.31293711	     19.54136154	     -5.32833800	     -4.99931149	    -65.54337017	     -6.08154184	    -19.17548402	     -0.73038106	      0.31279899	      7.88541548	      6.43058646	     -7.26040868	      3.69158042	    -17.44682494	     -0.76525484	    -12.87983281	      3.29232062	     -3.80456481
      1.38733333	      1.23648621	      2.80549943	     -2.91215077	      0.29905782	      1.02116157	      0.31278690	     19.91179006	     -5.08689132	     -5.06182063	    -64.75646767	     -5.55269827	    -19.08991441	     -0.76401581	     -0.26971661	      7.67136220	      6.47178331	     -6.79887414	      3.76097610	    -17.29940362	     -0.76269991	    -12.93859474	      3.58965608	     -3.99622490
      1.39150000	      1.23756202	      2.61808014	     -2.85168516	      0.30398774	      1.02157961	      0.31264471	     20.29855899	     -4.84659947	     -5.12553161	    -63.91674045	     -5.02902215	    -19.00887936	     -0.79953306	     -0.80601816	      7.45846201	      6.51796621	     -6.35921495	      3.80873669	    -17.17615502	     -0.75984394	    -12.95306197	      3.86749172	     -4.19586217
      1.39566667	      1.23093695	      2.44016705	     -2.78985548	      0.30891693	      1.02192324	      0.31252139	     20.67863114	     -4.61282653	     -5.17942711	    -63.03069507	     -4.51525661	    -18.93437374	     -0.81815881	     -1.32223891	      7.25320215	      6.54955148	     -5.94144468	      3.84022240	    -17.06180135	     -0.75743511	    -12.95488843	      4.11337564	     -4.33974043
      1.39983333	      1.26845969	      2.27525744	     -2.73209287	      0.31386149	      1.02226754	      0.31238088	     20.99759507	     -4.40455848	     -5.23523331	    -62.10204613	     -4.03479162	    -18.80291409	     -0.85030658	     -1.90425393	      7.06472430	      6.61336061	     -5.48541147	      3.90567654	    -16.94149382	     -0.75164712	    -13.00861436	      4.38057323	     -4.58016273
      1.40400000	      1.29185625	      2.10128163	     -2.66574805	      0.31880337	      1.02256025	      0.31225309	     21.30750874	     -4.18298044	     -5.29201299	    -61.11285056	     -3.57141612	    -18.69105352	     -0.88023759	     -2.45796318	      6.86300124	      6.66687490	     -5.05526595	      3.95301449	    -16.82750508	     -0.74557667	    -13.04733859	      4.64029435	     -4.77527815
      1.40816667	      1.27862893	      1.95234347	     -2.59487359	      0.32373435	      1.02272478	      0.31213874	     21.64889308	     -3.98361547	     -5.33508320	    -60.09167011	     -3.11100511	    -18.59045446	     -0.89447296	     -2.95199890	      6.68519483	      6.70838525	     -4.66262501	      3.98240947	    -16.71563686	     -0.74131822	    -13.04546044	      4.85506675	     -4.90800666
      1.41233333	      1.32424091	      1.78700677	     -2.52636579	      0.32868921	      1.02292976	      0.31202076	     21.89914250	     -3.77621219	     -5.38816948	    -59.00682046	     -2.68704573	    -18.44414943	     -0.91047128	     -3.52395441	      6.49118072	      6.76113304	     -4.24373594	      4.03886740	    -16.60119988	     -0.73501938	    -13.10948374	      5.10425175	     -5.09578934
      1.41650000	      1.32558019	      1.65814371	     -2.45722293	      0.33363644	      1.02298483	      0.31191573	     22.19511393	     -3.60448067	     -5.42326672	    -57.90189495	     -2.29149499	    -18.31714435	     -0.92350204	     -4.03844175	      6.33373850	      6.82230793	     -3.84056889	      4.09714187	    -16.48979956	     -0.72843747	    -13.12389046	      5.30813934	     -5.26648988
      1.42066667	      1.35698371	      1.52981100	     -2.38547736	      0.33859329	      1.02304772	      0.31180253	     22.43468692	     -3.43949839	     -5.46166238	    -56.74042681	     -1.92589656	    -18.17105509	     -0.93639884	     -4.58385464	      6.17726964	      6.88267851	     -3.44053950	      4.15608749	    -16.38219939	     -0.72138641	    -13.17043390	      5.51367037	     -5.45627034
      1.42483333	      1.42036759	      1.41392048	     -2.31833322	      0.34354933	      1.02309120	      0.31171273	     22.62573778	     -3.28854628	     -5.49279473	    -55.53692847	     -1.61180757	    -18.04046737	     -0.95967347	     -5.17363877	      6.03319811	      6.95922945	     -3.01766610	      4.22839347	    -16.27986761	     -0.71064427	    -13.26219941	      5.70858015	     -5.70727324
      1.42900000	      1.39285813	      1.29521996	     -2.23850333	      0.34851958	      1.02295999	      0.31161306	     22.89352225	     -3.13090319	     -5.52429028	    -54.28632539	     -1.30013318	    -17.90965736	     -0.96777563	     -5.63600991	      5.88278106	      7.01483637	     -2.65893009	      4.28852701	    -16.18250005	     -0.70441336	    -13.23777917	      5.89661445	     -5.81908129
      1.43316667	      1.41310399	      1.19538485	     -2.16554594	      0.35348460	      1.02282851	      0.31152910	     23.09494150	     -2.99685489	     -5.54532612	    -52.99486897	     -1.03365027	    -17.77225291	     -0.97703760	     -6.15431752	      5.75314113	      7.07799643	     -2.28866238	      4.36793901	    -16.08644792	     -0.69705365	    -13.26932297	      6.06854434	     -5.99728583
      1.43733333	      1.45887333	      1.10911187	     -2.09594595	      0.35845853	      1.02267387	      0.31145557	     23.25383865	     -2.88138937	     -5.56646264	    -51.66554691	     -0.81292615	    -17.64717628	     -0.98967841	     -6.70901626	      5.63708836	      7.14444346	     -1.89761525	      4.45752562	    -15.99658304	     -0.68782175	    -13.34123455	      6.22020202	     -6.21752200
      1.44150000	      1.42504702	      1.02916821	     -2.01777571	      0.36343738	      1.02235761	      0.31138430	     23.48003497	     -2.76737850	     -5.57846378	    -50.29434270	     -0.58515906	    -17.51715503	     -0.99398058	     -7.15342029	      5.52494289	      7.20488622	     -1.55893796	      4.53030306	    -15.90295240	     -0.68214705	    -13.31735274	      6.36251023	     -6.33119824
      1.44566667	      1.44606789	      0.95171495	     -1.94776283	      0.36843158	      1.02207031	      0.31133021	     23.62486425	     -2.66054961	     -5.59402692	    -48.87343296	     -0.42866227	    -17.40122835	     -1.00051279	     -7.67091840	      5.41581387	      7.26062831	     -1.19026613	      4.63553604	    -15.81854354	     -0.67539040	    -13.36088212	      6.49458211	     -6.52203304
      1.44983333	      1.40933894	      0.89335925	     -1.87302259	      0.37341819	      1.02165246	      0.31127676	     23.81412506	     -2.56822856	     -5.58605737	    -47.40997843	     -0.27250695	    -17.27399124	     -1.00309583	     -8.10325134	      5.32605843	      7.32395137	     -0.87084880	      4.72251846	    -15.73158681	     -0.67075273	    -13.32419888	      6.62370640	     -6.65048131
      1.45400000	      1.39614728	      0.84535832	     -1.80069461	      0.37841939	      1.02119868	      0.31122942	     23.96206262	     -2.49365361	     -5.58772647	    -45.91406167	     -0.15967857	    -17.15454714	     -1.00511427	     -8.56645118	      5.24746207	      7.37849963	     -0.53938967	      4.83195208	    -15.65315585	     -0.66654719	    -13.32842074	      6.72947098	     -6.81846378
